<svg width="90" height="67" viewBox="0 0 90 67" fill="none" xmlns="http://www.w3.org/2000/svg">
<path fill-rule="evenodd" clip-rule="evenodd" d="M74.3184 7.84342C78.0714 7.84342 81.1134 10.9613 81.1134 14.8075C81.1134 18.654 78.0714 21.7718 74.3184 21.7718C70.5653 21.7718 67.5228 18.654 67.5228 14.8075C67.5228 10.9613 70.5653 7.84342 74.3184 7.84342Z" fill="white"/>
<path d="M75.5181 18.3076H74.3706V13.6982C74.3706 13.1481 74.3836 12.7119 74.4097 12.3896C74.3348 12.4678 74.242 12.554 74.1313 12.6484C74.0239 12.7428 73.6593 13.0423 73.0376 13.5469L72.4614 12.8193L74.561 11.1689H75.5181V18.3076Z" fill="#FF723D"/>
<path d="M7.90582 32.1765H14.3434C16.0323 32.1764 17.652 32.9018 18.8464 34.1933C20.0407 35.4848 20.7119 37.2366 20.7122 39.0633V39.719C20.7122 40.1708 20.5463 40.604 20.2509 40.9235C19.9556 41.2429 19.555 41.4224 19.1373 41.4224H3.11245C2.69478 41.4224 2.29421 41.2429 1.99886 40.9235C1.70352 40.604 1.5376 40.1708 1.5376 39.719V39.0633C1.53789 37.2367 2.20896 35.485 3.4032 34.1935C4.59744 32.902 6.21706 32.1765 7.90582 32.1765V32.1765Z" stroke="white" stroke-width="2" stroke-miterlimit="10" stroke-linecap="round"/>
<path d="M11.1249 28.4781C13.8985 28.4781 16.1469 26.2014 16.1469 23.3929C16.1469 20.5844 13.8985 18.3076 11.1249 18.3076C8.35141 18.3076 6.10303 20.5844 6.10303 23.3929C6.10303 26.2014 8.35141 28.4781 11.1249 28.4781Z" stroke="white" stroke-width="2" stroke-miterlimit="10" stroke-linecap="round"/>
<path d="M42.7729 18.3076H45.575C45.8311 18.3076 46.0793 18.3993 46.2768 18.5669C46.4744 18.7345 46.6091 18.9676 46.6577 19.2261L49.2288 32.899C49.2774 33.1576 49.4121 33.3907 49.6097 33.5584C49.8072 33.726 50.0554 33.8178 50.3115 33.8178H63.4548" stroke="white" stroke-width="2" stroke-miterlimit="10" stroke-linecap="round"/>
<path d="M47.5459 21.573H63.9195C64.0945 21.573 64.2671 21.615 64.4236 21.6957C64.5802 21.7764 64.7163 21.8936 64.8212 22.0379C64.9261 22.1823 64.9969 22.3499 65.028 22.5274C65.0591 22.7049 65.0496 22.8874 65.0003 23.0605L63.3373 28.9021C63.2688 29.1428 63.1264 29.3542 62.9315 29.5046C62.7366 29.655 62.4997 29.7363 62.2562 29.7363H49.1652" stroke="white" stroke-width="2" stroke-miterlimit="10"/>
<path d="M51.9208 41.1646C53.0191 41.1646 53.9094 40.2509 53.9094 39.1238C53.9094 37.9967 53.0191 37.083 51.9208 37.083C50.8225 37.083 49.9321 37.9967 49.9321 39.1238C49.9321 40.2509 50.8225 41.1646 51.9208 41.1646Z" stroke="white" stroke-width="2" stroke-miterlimit="10"/>
<path d="M59.8754 41.1646C60.9736 41.1646 61.864 40.2509 61.864 39.1238C61.864 37.9967 60.9736 37.083 59.8754 37.083C58.7771 37.083 57.8867 37.9967 57.8867 39.1238C57.8867 40.2509 58.7771 41.1646 59.8754 41.1646Z" stroke="white" stroke-width="2" stroke-miterlimit="10"/>
</svg>
