<svg width="16" height="13" viewBox="0 0 16 13" fill="none" xmlns="http://www.w3.org/2000/svg">
<path fill-rule="evenodd" clip-rule="evenodd" d="M13 0.307617C14.6569 0.307617 16 1.65076 16 3.30762V9.30762C16 10.9645 14.6569 12.3076 13 12.3076H3C1.34315 12.3076 0 10.9645 0 9.30762V3.30762C0 1.65076 1.34315 0.307617 3 0.307617H13ZM14 3.60762L8.6585 8.06019C8.3129 8.3626 7.81106 8.3878 7.43941 8.1358L7.3415 8.06019L2 3.60862V9.30762C2 9.8599 2.44772 10.3076 3 10.3076H13C13.5523 10.3076 14 9.8599 14 9.30762V3.60762ZM12.432 2.30762H3.567L8 5.97885L12.432 2.30762Z" fill="#FF723D"/>
</svg>
