<svg width="16" height="17" viewBox="0 0 16 17" fill="none" xmlns="http://www.w3.org/2000/svg">
<path fill-rule="evenodd" clip-rule="evenodd" d="M6.31623 7.2563C6.72457 7.12019 7 6.73805 7 6.30762V3.30762C7 1.65076 5.65685 0.307617 4 0.307617H1C0.447715 0.307617 0 0.755332 0 1.30762C0 9.16233 7.14528 16.3076 15 16.3076C15.5523 16.3076 16 15.8599 16 15.3076V12.3076C16 10.6508 14.6569 9.30762 13 9.30762H10C9.56957 9.30762 9.18743 9.58305 9.05132 9.99139L8.30429 12.2325C6.74458 11.2201 5.37501 9.88959 4.31438 8.35983L4.07516 8.00332L6.31623 7.2563ZM10.7208 11.3076H13C13.5523 11.3076 14 11.7553 14 12.3076V14.2622C12.7978 14.1533 11.621 13.8515 10.503 13.3904L10.0866 13.21L10.7208 11.3076ZM2.04542 2.30762H4C4.55228 2.30762 5 2.75533 5 3.30762V5.58686L3.09757 6.221C2.53454 4.9804 2.16796 3.66007 2.04542 2.30762Z" fill="#FF723D"/>
</svg>
