<svg width="18" height="18" viewBox="0 0 18 18" fill="none" xmlns="http://www.w3.org/2000/svg">
<path d="M8.80196 4.48753C6.30479 4.48753 4.29055 6.50222 4.29055 8.99995C4.29055 11.4977 6.30479 13.5124 8.80196 13.5124C11.2991 13.5124 13.3134 11.4977 13.3134 8.99995C13.3134 6.50222 11.2991 4.48753 8.80196 4.48753ZM8.80196 11.9336C7.18822 11.9336 5.86896 10.618 5.86896 8.99995C5.86896 7.38192 7.18429 6.06629 8.80196 6.06629C10.4196 6.06629 11.735 7.38192 11.735 8.99995C11.735 10.618 10.4157 11.9336 8.80196 11.9336ZM14.5502 4.30295C14.5502 4.88811 14.079 5.35546 13.4979 5.35546C12.9129 5.35546 12.4456 4.88419 12.4456 4.30295C12.4456 3.72172 12.9168 3.25045 13.4979 3.25045C14.079 3.25045 14.5502 3.72172 14.5502 4.30295ZM17.5382 5.37117C17.4714 3.96128 17.1494 2.71241 16.1168 1.68347C15.0881 0.654531 13.8395 0.332496 12.4299 0.261805C10.9772 0.179333 6.62282 0.179333 5.17006 0.261805C3.76442 0.328569 2.51583 0.650604 1.48319 1.67955C0.450552 2.70849 0.132515 3.95735 0.0618405 5.36724C-0.0206135 6.82032 -0.0206135 11.1757 0.0618405 12.6287C0.128589 14.0386 0.450552 15.2875 1.48319 16.3164C2.51583 17.3454 3.76049 17.6674 5.17006 17.7381C6.62282 17.8206 10.9772 17.8206 12.4299 17.7381C13.8395 17.6713 15.0881 17.3493 16.1168 16.3164C17.1455 15.2875 17.4675 14.0386 17.5382 12.6287C17.6206 11.1757 17.6206 6.82425 17.5382 5.37117ZM15.6613 14.1879C15.3551 14.9576 14.7622 15.5506 13.9887 15.8609C12.8304 16.3204 10.082 16.2143 8.80196 16.2143C7.52196 16.2143 4.76957 16.3164 3.61521 15.8609C2.84564 15.5545 2.25276 14.9615 1.94258 14.1879C1.48319 13.0293 1.5892 10.2802 1.5892 8.99995C1.5892 7.71967 1.48712 4.96666 1.94258 3.81205C2.24883 3.0423 2.84172 2.44929 3.61521 2.13903C4.7735 1.67954 7.52196 1.78558 8.80196 1.78558C10.082 1.78558 12.8344 1.68347 13.9887 2.13903C14.7583 2.44536 15.3512 3.03838 15.6613 3.81205C16.1207 4.97059 16.0147 7.71967 16.0147 8.99995C16.0147 10.2802 16.1207 13.0332 15.6613 14.1879Z" fill="#4E4E4E" fill-opacity="0.45"/>
</svg>
