<svg width="58" height="58" viewBox="0 0 58 58" fill="none" xmlns="http://www.w3.org/2000/svg">
<rect width="58" height="58" rx="12" fill="#CBCBCB" fill-opacity="0.23"/>
<path d="M36.8286 19.8H20.3671C19.6129 19.8 19 20.3956 19 21.1267V36.8734C19 37.6045 19.6129 38.2 20.3671 38.2H36.8286C37.5829 38.2 38.2 37.6045 38.2 36.8734V21.1267C38.2 20.3956 37.5829 19.8 36.8286 19.8ZM24.8029 35.5715H21.9571V26.7904H24.8071V35.5715H24.8029ZM23.38 25.5911C22.4671 25.5911 21.73 24.8806 21.73 24.0099C21.73 23.1392 22.4671 22.4286 23.38 22.4286C24.2886 22.4286 25.03 23.1392 25.03 24.0099C25.03 24.8847 24.2929 25.5911 23.38 25.5911ZM35.47 35.5715H32.6243V31.3C32.6243 30.2815 32.6029 28.9713 31.1457 28.9713C29.6629 28.9713 29.4357 30.0802 29.4357 31.2261V35.5715H26.59V26.7904H29.32V27.9897H29.3586C29.74 27.2997 30.67 26.5727 32.0543 26.5727C34.9343 26.5727 35.47 28.3922 35.47 30.7579V35.5715Z" fill="#4E4E4E" fill-opacity="0.45"/>
</svg>
