<svg width="20" height="20" viewBox="0 0 20 20" fill="none" xmlns="http://www.w3.org/2000/svg">
<path d="M17.8286 0.800049H1.36714C0.612857 0.800049 0 1.39558 0 2.12666V17.8734C0 18.6045 0.612857 19.2 1.36714 19.2H17.8286C18.5829 19.2 19.2 18.6045 19.2 17.8734V2.12666C19.2 1.39558 18.5829 0.800049 17.8286 0.800049ZM5.80286 16.5715H2.95714V7.79041H5.80714V16.5715H5.80286ZM4.38 6.59112C3.46714 6.59112 2.73 5.88058 2.73 5.00987C2.73 4.13916 3.46714 3.42862 4.38 3.42862C5.28857 3.42862 6.03 4.13916 6.03 5.00987C6.03 5.88469 5.29286 6.59112 4.38 6.59112ZM16.47 16.5715H13.6243V12.3C13.6243 11.2815 13.6029 9.9713 12.1457 9.9713C10.6629 9.9713 10.4357 11.0802 10.4357 12.2261V16.5715H7.59V7.79041H10.32V8.98969H10.3586C10.74 8.29969 11.67 7.57273 13.0543 7.57273C15.9343 7.57273 16.47 9.39219 16.47 11.7579V16.5715Z" fill="#4E4E4E" fill-opacity="0.45"/>
</svg>
